G04 EAGLE Gerber RS-274X export*
G75*
%MOMM*%
%FSLAX34Y34*%
%LPD*%
%IN*%
%IPPOS*%
%AMOC8*
5,1,8,0,0,1.08239X$1,22.5*%
G01*
%ADD10C,0.254000*%


D10*
X-300000Y-30000D02*
X-299886Y-32615D01*
X-299544Y-35209D01*
X-298978Y-37765D01*
X-298191Y-40261D01*
X-297189Y-42679D01*
X-295981Y-45000D01*
X-294575Y-47207D01*
X-292981Y-49284D01*
X-291213Y-51213D01*
X-289284Y-52981D01*
X-287207Y-54575D01*
X-285000Y-55981D01*
X-282679Y-57189D01*
X-280261Y-58191D01*
X-277765Y-58978D01*
X-275209Y-59544D01*
X-272615Y-59886D01*
X-270000Y-60000D01*
X-220000Y-60000D01*
X-219924Y-58257D01*
X-219696Y-56527D01*
X-219319Y-54824D01*
X-218794Y-53160D01*
X-218126Y-51548D01*
X-217321Y-50000D01*
X-216383Y-48528D01*
X-215321Y-47144D01*
X-214142Y-45858D01*
X-212856Y-44679D01*
X-211472Y-43617D01*
X-210000Y-42680D01*
X-208452Y-41874D01*
X-206840Y-41206D01*
X-205176Y-40681D01*
X-203473Y-40304D01*
X-201743Y-40076D01*
X-200000Y-40000D01*
X200000Y-40000D01*
X201743Y-40076D01*
X203473Y-40304D01*
X205176Y-40681D01*
X206840Y-41206D01*
X208452Y-41874D01*
X210000Y-42680D01*
X211472Y-43617D01*
X212856Y-44679D01*
X214142Y-45858D01*
X215321Y-47144D01*
X216383Y-48528D01*
X217321Y-50000D01*
X218126Y-51548D01*
X218794Y-53160D01*
X219319Y-54824D01*
X219696Y-56527D01*
X219924Y-58257D01*
X220000Y-60000D01*
X270000Y-60000D01*
X272615Y-59886D01*
X275209Y-59544D01*
X277765Y-58978D01*
X280261Y-58191D01*
X282679Y-57189D01*
X285000Y-55981D01*
X287207Y-54575D01*
X289284Y-52981D01*
X291213Y-51213D01*
X292981Y-49284D01*
X294575Y-47207D01*
X295981Y-45000D01*
X297189Y-42679D01*
X298191Y-40261D01*
X298978Y-37765D01*
X299544Y-35209D01*
X299886Y-32615D01*
X300000Y-30000D01*
X300000Y620000D01*
X299886Y622615D01*
X299544Y625209D01*
X298978Y627765D01*
X298191Y630261D01*
X297189Y632679D01*
X295981Y635000D01*
X294575Y637207D01*
X292981Y639284D01*
X291213Y641213D01*
X289284Y642981D01*
X287207Y644575D01*
X285000Y645981D01*
X282679Y647189D01*
X280261Y648191D01*
X277765Y648978D01*
X275209Y649544D01*
X272615Y649886D01*
X270000Y650000D01*
X-270000Y650000D01*
X-272615Y649886D01*
X-275209Y649544D01*
X-277765Y648978D01*
X-280261Y648191D01*
X-282679Y647189D01*
X-285000Y645981D01*
X-287207Y644575D01*
X-289284Y642981D01*
X-291213Y641213D01*
X-292981Y639284D01*
X-294575Y637207D01*
X-295981Y635000D01*
X-297189Y632679D01*
X-298191Y630261D01*
X-298978Y627765D01*
X-299544Y625209D01*
X-299886Y622615D01*
X-300000Y620000D01*
X-300000Y-30000D01*
X-257500Y-30491D02*
X-257577Y-31470D01*
X-257731Y-32441D01*
X-257960Y-33396D01*
X-258264Y-34330D01*
X-258639Y-35237D01*
X-259085Y-36112D01*
X-259599Y-36950D01*
X-260176Y-37745D01*
X-260814Y-38492D01*
X-261508Y-39186D01*
X-262255Y-39824D01*
X-263050Y-40401D01*
X-263888Y-40915D01*
X-264763Y-41361D01*
X-265670Y-41736D01*
X-266604Y-42040D01*
X-267560Y-42269D01*
X-268530Y-42423D01*
X-269509Y-42500D01*
X-270491Y-42500D01*
X-271470Y-42423D01*
X-272441Y-42269D01*
X-273396Y-42040D01*
X-274330Y-41736D01*
X-275237Y-41361D01*
X-276112Y-40915D01*
X-276950Y-40401D01*
X-277745Y-39824D01*
X-278492Y-39186D01*
X-279186Y-38492D01*
X-279824Y-37745D01*
X-280401Y-36950D01*
X-280915Y-36112D01*
X-281361Y-35237D01*
X-281736Y-34330D01*
X-282040Y-33396D01*
X-282269Y-32441D01*
X-282423Y-31470D01*
X-282500Y-30491D01*
X-282500Y-29509D01*
X-282423Y-28530D01*
X-282269Y-27560D01*
X-282040Y-26604D01*
X-281736Y-25670D01*
X-281361Y-24763D01*
X-280915Y-23888D01*
X-280401Y-23050D01*
X-279824Y-22255D01*
X-279186Y-21508D01*
X-278492Y-20814D01*
X-277745Y-20176D01*
X-276950Y-19599D01*
X-276112Y-19085D01*
X-275237Y-18639D01*
X-274330Y-18264D01*
X-273396Y-17960D01*
X-272441Y-17731D01*
X-271470Y-17577D01*
X-270491Y-17500D01*
X-269509Y-17500D01*
X-268530Y-17577D01*
X-267560Y-17731D01*
X-266604Y-17960D01*
X-265670Y-18264D01*
X-264763Y-18639D01*
X-263888Y-19085D01*
X-263050Y-19599D01*
X-262255Y-20176D01*
X-261508Y-20814D01*
X-260814Y-21508D01*
X-260176Y-22255D01*
X-259599Y-23050D01*
X-259085Y-23888D01*
X-258639Y-24763D01*
X-258264Y-25670D01*
X-257960Y-26604D01*
X-257731Y-27560D01*
X-257577Y-28530D01*
X-257500Y-29509D01*
X-257500Y-30491D01*
X282500Y-30491D02*
X282423Y-31470D01*
X282269Y-32441D01*
X282040Y-33396D01*
X281736Y-34330D01*
X281361Y-35237D01*
X280915Y-36112D01*
X280401Y-36950D01*
X279824Y-37745D01*
X279186Y-38492D01*
X278492Y-39186D01*
X277745Y-39824D01*
X276950Y-40401D01*
X276112Y-40915D01*
X275237Y-41361D01*
X274330Y-41736D01*
X273396Y-42040D01*
X272441Y-42269D01*
X271470Y-42423D01*
X270491Y-42500D01*
X269509Y-42500D01*
X268530Y-42423D01*
X267560Y-42269D01*
X266604Y-42040D01*
X265670Y-41736D01*
X264763Y-41361D01*
X263888Y-40915D01*
X263050Y-40401D01*
X262255Y-39824D01*
X261508Y-39186D01*
X260814Y-38492D01*
X260176Y-37745D01*
X259599Y-36950D01*
X259085Y-36112D01*
X258639Y-35237D01*
X258264Y-34330D01*
X257960Y-33396D01*
X257731Y-32441D01*
X257577Y-31470D01*
X257500Y-30491D01*
X257500Y-29509D01*
X257577Y-28530D01*
X257731Y-27560D01*
X257960Y-26604D01*
X258264Y-25670D01*
X258639Y-24763D01*
X259085Y-23888D01*
X259599Y-23050D01*
X260176Y-22255D01*
X260814Y-21508D01*
X261508Y-20814D01*
X262255Y-20176D01*
X263050Y-19599D01*
X263888Y-19085D01*
X264763Y-18639D01*
X265670Y-18264D01*
X266604Y-17960D01*
X267560Y-17731D01*
X268530Y-17577D01*
X269509Y-17500D01*
X270491Y-17500D01*
X271470Y-17577D01*
X272441Y-17731D01*
X273396Y-17960D01*
X274330Y-18264D01*
X275237Y-18639D01*
X276112Y-19085D01*
X276950Y-19599D01*
X277745Y-20176D01*
X278492Y-20814D01*
X279186Y-21508D01*
X279824Y-22255D01*
X280401Y-23050D01*
X280915Y-23888D01*
X281361Y-24763D01*
X281736Y-25670D01*
X282040Y-26604D01*
X282269Y-27560D01*
X282423Y-28530D01*
X282500Y-29509D01*
X282500Y-30491D01*
X282500Y619509D02*
X282423Y618530D01*
X282269Y617560D01*
X282040Y616604D01*
X281736Y615670D01*
X281361Y614763D01*
X280915Y613888D01*
X280401Y613050D01*
X279824Y612255D01*
X279186Y611508D01*
X278492Y610814D01*
X277745Y610176D01*
X276950Y609599D01*
X276112Y609085D01*
X275237Y608639D01*
X274330Y608264D01*
X273396Y607960D01*
X272441Y607731D01*
X271470Y607577D01*
X270491Y607500D01*
X269509Y607500D01*
X268530Y607577D01*
X267560Y607731D01*
X266604Y607960D01*
X265670Y608264D01*
X264763Y608639D01*
X263888Y609085D01*
X263050Y609599D01*
X262255Y610176D01*
X261508Y610814D01*
X260814Y611508D01*
X260176Y612255D01*
X259599Y613050D01*
X259085Y613888D01*
X258639Y614763D01*
X258264Y615670D01*
X257960Y616604D01*
X257731Y617560D01*
X257577Y618530D01*
X257500Y619509D01*
X257500Y620491D01*
X257577Y621470D01*
X257731Y622441D01*
X257960Y623396D01*
X258264Y624330D01*
X258639Y625237D01*
X259085Y626112D01*
X259599Y626950D01*
X260176Y627745D01*
X260814Y628492D01*
X261508Y629186D01*
X262255Y629824D01*
X263050Y630401D01*
X263888Y630915D01*
X264763Y631361D01*
X265670Y631736D01*
X266604Y632040D01*
X267560Y632269D01*
X268530Y632423D01*
X269509Y632500D01*
X270491Y632500D01*
X271470Y632423D01*
X272441Y632269D01*
X273396Y632040D01*
X274330Y631736D01*
X275237Y631361D01*
X276112Y630915D01*
X276950Y630401D01*
X277745Y629824D01*
X278492Y629186D01*
X279186Y628492D01*
X279824Y627745D01*
X280401Y626950D01*
X280915Y626112D01*
X281361Y625237D01*
X281736Y624330D01*
X282040Y623396D01*
X282269Y622441D01*
X282423Y621470D01*
X282500Y620491D01*
X282500Y619509D01*
X-257500Y619509D02*
X-257577Y618530D01*
X-257731Y617560D01*
X-257960Y616604D01*
X-258264Y615670D01*
X-258639Y614763D01*
X-259085Y613888D01*
X-259599Y613050D01*
X-260176Y612255D01*
X-260814Y611508D01*
X-261508Y610814D01*
X-262255Y610176D01*
X-263050Y609599D01*
X-263888Y609085D01*
X-264763Y608639D01*
X-265670Y608264D01*
X-266604Y607960D01*
X-267560Y607731D01*
X-268530Y607577D01*
X-269509Y607500D01*
X-270491Y607500D01*
X-271470Y607577D01*
X-272441Y607731D01*
X-273396Y607960D01*
X-274330Y608264D01*
X-275237Y608639D01*
X-276112Y609085D01*
X-276950Y609599D01*
X-277745Y610176D01*
X-278492Y610814D01*
X-279186Y611508D01*
X-279824Y612255D01*
X-280401Y613050D01*
X-280915Y613888D01*
X-281361Y614763D01*
X-281736Y615670D01*
X-282040Y616604D01*
X-282269Y617560D01*
X-282423Y618530D01*
X-282500Y619509D01*
X-282500Y620491D01*
X-282423Y621470D01*
X-282269Y622441D01*
X-282040Y623396D01*
X-281736Y624330D01*
X-281361Y625237D01*
X-280915Y626112D01*
X-280401Y626950D01*
X-279824Y627745D01*
X-279186Y628492D01*
X-278492Y629186D01*
X-277745Y629824D01*
X-276950Y630401D01*
X-276112Y630915D01*
X-275237Y631361D01*
X-274330Y631736D01*
X-273396Y632040D01*
X-272441Y632269D01*
X-271470Y632423D01*
X-270491Y632500D01*
X-269509Y632500D01*
X-268530Y632423D01*
X-267560Y632269D01*
X-266604Y632040D01*
X-265670Y631736D01*
X-264763Y631361D01*
X-263888Y630915D01*
X-263050Y630401D01*
X-262255Y629824D01*
X-261508Y629186D01*
X-260814Y628492D01*
X-260176Y627745D01*
X-259599Y626950D01*
X-259085Y626112D01*
X-258639Y625237D01*
X-258264Y624330D01*
X-257960Y623396D01*
X-257731Y622441D01*
X-257577Y621470D01*
X-257500Y620491D01*
X-257500Y619509D01*
M02*
