G04 EAGLE Gerber RS-274X export*
G75*
%MOMM*%
%FSLAX34Y34*%
%LPD*%
%INSolderpaste Top*%
%IPPOS*%
%AMOC8*
5,1,8,0,0,1.08239X$1,22.5*%
G01*
%ADD10R,1.500000X0.900000*%
%ADD11R,0.900000X1.500000*%
%ADD12R,0.900000X0.900000*%
%ADD13R,1.000000X4.600000*%
%ADD14R,1.600000X3.400000*%
%ADD15R,1.200000X0.550000*%
%ADD16R,1.600000X0.500000*%
%ADD17R,0.900000X0.425000*%
%ADD18R,0.550000X1.200000*%
%ADD19R,1.100000X1.000000*%
%ADD20R,1.000000X1.100000*%
%ADD21R,1.500000X1.300000*%
%ADD22R,1.300000X1.500000*%
%ADD23R,0.800000X0.800000*%
%ADD24R,0.600000X1.550000*%
%ADD25R,1.200000X1.800000*%
%ADD26R,2.220000X1.020000*%


D10*
X-90000Y572300D03*
X-90000Y559600D03*
X-90000Y546900D03*
X-90000Y534200D03*
X-90000Y521500D03*
X-90000Y508800D03*
X-90000Y496100D03*
X-90000Y483400D03*
X-90000Y470700D03*
X-90000Y458000D03*
X-90000Y445300D03*
X-90000Y432600D03*
X-90000Y419900D03*
X-90000Y407200D03*
D11*
X-57150Y392300D03*
X-44450Y392300D03*
X-31750Y392300D03*
X-19050Y392300D03*
X-6350Y392300D03*
X6350Y392300D03*
X19050Y392300D03*
X31750Y392300D03*
X44450Y392300D03*
X57150Y392300D03*
D10*
X90000Y407200D03*
X90000Y419900D03*
X90000Y432600D03*
X90000Y445300D03*
X90000Y458000D03*
X90000Y470700D03*
X90000Y483400D03*
X90000Y496100D03*
X90000Y508800D03*
X90000Y521500D03*
X90000Y534200D03*
X90000Y546900D03*
X90000Y559600D03*
X90000Y572300D03*
D12*
X-29500Y507800D03*
X-29500Y479800D03*
X-29500Y493800D03*
X-15500Y479800D03*
X-1500Y479800D03*
X-15500Y493800D03*
X-15500Y507800D03*
X-1500Y493800D03*
X-1500Y507800D03*
D13*
X10000Y37000D03*
X-10000Y37000D03*
D14*
X34000Y-15000D03*
X-34000Y-15000D03*
D15*
X-13001Y119500D03*
X-13001Y110000D03*
X-13001Y100500D03*
X13001Y100500D03*
X13001Y119500D03*
D16*
X-179750Y629000D03*
X-179750Y620000D03*
X-179750Y611000D03*
X-150250Y611000D03*
X-150250Y620000D03*
X-150250Y629000D03*
D17*
X-206500Y603000D03*
X-206500Y611000D03*
X-206500Y619000D03*
X-206500Y627000D03*
X-223500Y627000D03*
X-223500Y619000D03*
X-223500Y611000D03*
X-223500Y603000D03*
D18*
X164500Y518000D03*
X155000Y518000D03*
X145500Y518000D03*
X145500Y492000D03*
X164500Y492000D03*
D19*
X-32500Y71500D03*
X-32500Y88500D03*
X10625Y153500D03*
X10625Y136500D03*
X-10625Y153500D03*
X-10625Y136500D03*
D20*
X-141500Y500000D03*
X-158500Y500000D03*
X146500Y465000D03*
X163500Y465000D03*
D21*
X32500Y89500D03*
X32500Y70500D03*
D22*
X-9500Y80000D03*
X9500Y80000D03*
X-140500Y545000D03*
X-159500Y545000D03*
X-140500Y567500D03*
X-159500Y567500D03*
X-140500Y522500D03*
X-159500Y522500D03*
D23*
X-160000Y5000D03*
X-145000Y5000D03*
D22*
X164500Y550000D03*
X145500Y550000D03*
D20*
X268500Y85000D03*
X251500Y85000D03*
X268500Y185000D03*
X251500Y185000D03*
D24*
X187500Y596110D03*
X177500Y596110D03*
X167500Y596110D03*
X157500Y596110D03*
D25*
X200500Y635110D03*
X144500Y635110D03*
D26*
X-60600Y203200D03*
X-117200Y203200D03*
X-60600Y177800D03*
X-117200Y177800D03*
X-60600Y152400D03*
X-117200Y152400D03*
X-60600Y127000D03*
X-117200Y127000D03*
X-60600Y101600D03*
X-117200Y101600D03*
X-60600Y76200D03*
X-117200Y76200D03*
X-60600Y50800D03*
X-117200Y50800D03*
X-60600Y0D03*
X-117200Y0D03*
X-60600Y228600D03*
X-117200Y228600D03*
X-60600Y254000D03*
X-117200Y254000D03*
X-60600Y279400D03*
X-117200Y279400D03*
X-60600Y-25400D03*
X-117200Y-25400D03*
X-60600Y25400D03*
X-117200Y25400D03*
X60600Y0D03*
X117200Y0D03*
X60600Y76200D03*
X117200Y76200D03*
X60600Y101600D03*
X117200Y101600D03*
X60600Y127000D03*
X117200Y127000D03*
X60600Y152400D03*
X117200Y152400D03*
X60600Y177800D03*
X117200Y177800D03*
X60600Y203200D03*
X117200Y203200D03*
X60600Y25400D03*
X117200Y25400D03*
X60600Y279400D03*
X117200Y279400D03*
X60600Y254000D03*
X117200Y254000D03*
X60600Y-25400D03*
X117200Y-25400D03*
X60600Y228600D03*
X117200Y228600D03*
X60600Y50800D03*
X117200Y50800D03*
M02*
