G04 EAGLE Gerber RS-274X export*
G75*
%MOMM*%
%FSLAX34Y34*%
%LPD*%
%INSoldermask Top*%
%IPPOS*%
%AMOC8*
5,1,8,0,0,1.08239X$1,22.5*%
G01*
%ADD10C,2.703200*%
%ADD11R,1.511200X1.511200*%
%ADD12C,1.511200*%
%ADD13R,1.703200X1.103200*%
%ADD14R,1.103200X1.703200*%
%ADD15R,4.203200X4.203200*%
%ADD16R,1.203200X4.803200*%
%ADD17R,1.803200X3.603200*%
%ADD18R,1.403200X0.753200*%
%ADD19R,1.803200X0.703200*%
%ADD20R,1.103200X0.628200*%
%ADD21R,0.753200X1.403200*%
%ADD22R,1.303200X1.203200*%
%ADD23R,1.203200X1.303200*%
%ADD24R,1.703200X1.503200*%
%ADD25R,1.503200X1.703200*%
%ADD26R,1.003200X1.003200*%
%ADD27C,2.082800*%
%ADD28R,0.803200X1.753200*%
%ADD29R,1.403200X2.003200*%
%ADD30C,1.879600*%
%ADD31R,2.423200X1.223200*%

G36*
X-285708Y97020D02*
X-285708Y97020D01*
X-285665Y97032D01*
X-285599Y97039D01*
X-283916Y97490D01*
X-283875Y97509D01*
X-283812Y97528D01*
X-282232Y98265D01*
X-282195Y98291D01*
X-282136Y98320D01*
X-280708Y99320D01*
X-280677Y99352D01*
X-280624Y99391D01*
X-279391Y100624D01*
X-279366Y100660D01*
X-279320Y100708D01*
X-278320Y102136D01*
X-278302Y102177D01*
X-278265Y102232D01*
X-277528Y103812D01*
X-277517Y103855D01*
X-277490Y103916D01*
X-277039Y105599D01*
X-277037Y105631D01*
X-277030Y105652D01*
X-277030Y105667D01*
X-277020Y105708D01*
X-276868Y107445D01*
X-276872Y107489D01*
X-276868Y107555D01*
X-277020Y109292D01*
X-277032Y109335D01*
X-277039Y109401D01*
X-277490Y111084D01*
X-277509Y111125D01*
X-277528Y111188D01*
X-278265Y112768D01*
X-278291Y112805D01*
X-278320Y112864D01*
X-279320Y114292D01*
X-279352Y114323D01*
X-279391Y114376D01*
X-280624Y115609D01*
X-280660Y115634D01*
X-280708Y115680D01*
X-282136Y116680D01*
X-282177Y116698D01*
X-282232Y116735D01*
X-283812Y117472D01*
X-283855Y117483D01*
X-283916Y117510D01*
X-285599Y117961D01*
X-285644Y117964D01*
X-285708Y117980D01*
X-287445Y118132D01*
X-287489Y118128D01*
X-287555Y118132D01*
X-289292Y117980D01*
X-289335Y117968D01*
X-289401Y117961D01*
X-291084Y117510D01*
X-291125Y117491D01*
X-291188Y117472D01*
X-292768Y116735D01*
X-292805Y116709D01*
X-292864Y116680D01*
X-294292Y115680D01*
X-294323Y115648D01*
X-294376Y115609D01*
X-295609Y114376D01*
X-295634Y114340D01*
X-295680Y114292D01*
X-296680Y112864D01*
X-296698Y112823D01*
X-296735Y112768D01*
X-297472Y111188D01*
X-297483Y111145D01*
X-297510Y111084D01*
X-297961Y109401D01*
X-297964Y109356D01*
X-297980Y109292D01*
X-298132Y107555D01*
X-298128Y107511D01*
X-298132Y107445D01*
X-297980Y105708D01*
X-297968Y105665D01*
X-297964Y105631D01*
X-297964Y105615D01*
X-297962Y105610D01*
X-297961Y105599D01*
X-297510Y103916D01*
X-297491Y103875D01*
X-297472Y103812D01*
X-296735Y102232D01*
X-296709Y102195D01*
X-296680Y102136D01*
X-295680Y100708D01*
X-295648Y100677D01*
X-295609Y100624D01*
X-294376Y99391D01*
X-294340Y99366D01*
X-294292Y99320D01*
X-292864Y98320D01*
X-292823Y98302D01*
X-292768Y98265D01*
X-291188Y97528D01*
X-291145Y97517D01*
X-291084Y97490D01*
X-289401Y97039D01*
X-289356Y97036D01*
X-289292Y97020D01*
X-287555Y96868D01*
X-287511Y96872D01*
X-287445Y96868D01*
X-285708Y97020D01*
G37*
G36*
X289292Y97020D02*
X289292Y97020D01*
X289335Y97032D01*
X289401Y97039D01*
X291084Y97490D01*
X291125Y97509D01*
X291188Y97528D01*
X292768Y98265D01*
X292805Y98291D01*
X292864Y98320D01*
X294292Y99320D01*
X294323Y99352D01*
X294376Y99391D01*
X295609Y100624D01*
X295634Y100660D01*
X295680Y100708D01*
X296680Y102136D01*
X296698Y102177D01*
X296735Y102232D01*
X297472Y103812D01*
X297483Y103855D01*
X297510Y103916D01*
X297961Y105599D01*
X297963Y105631D01*
X297970Y105652D01*
X297970Y105667D01*
X297980Y105708D01*
X298132Y107445D01*
X298128Y107489D01*
X298132Y107555D01*
X297980Y109292D01*
X297968Y109335D01*
X297961Y109401D01*
X297510Y111084D01*
X297491Y111125D01*
X297472Y111188D01*
X296735Y112768D01*
X296709Y112805D01*
X296680Y112864D01*
X295680Y114292D01*
X295648Y114323D01*
X295609Y114376D01*
X294376Y115609D01*
X294340Y115634D01*
X294292Y115680D01*
X292864Y116680D01*
X292823Y116698D01*
X292768Y116735D01*
X291188Y117472D01*
X291145Y117483D01*
X291084Y117510D01*
X289401Y117961D01*
X289356Y117964D01*
X289292Y117980D01*
X287555Y118132D01*
X287511Y118128D01*
X287445Y118132D01*
X285708Y117980D01*
X285665Y117968D01*
X285599Y117961D01*
X283916Y117510D01*
X283875Y117491D01*
X283812Y117472D01*
X282232Y116735D01*
X282195Y116709D01*
X282136Y116680D01*
X280708Y115680D01*
X280677Y115648D01*
X280624Y115609D01*
X279391Y114376D01*
X279366Y114340D01*
X279320Y114292D01*
X278320Y112864D01*
X278302Y112823D01*
X278265Y112768D01*
X277528Y111188D01*
X277517Y111145D01*
X277490Y111084D01*
X277039Y109401D01*
X277036Y109356D01*
X277020Y109292D01*
X276868Y107555D01*
X276872Y107511D01*
X276868Y107445D01*
X277020Y105708D01*
X277032Y105665D01*
X277036Y105631D01*
X277036Y105615D01*
X277038Y105610D01*
X277039Y105599D01*
X277490Y103916D01*
X277509Y103875D01*
X277528Y103812D01*
X278265Y102232D01*
X278291Y102195D01*
X278320Y102136D01*
X279320Y100708D01*
X279352Y100677D01*
X279391Y100624D01*
X280624Y99391D01*
X280660Y99366D01*
X280708Y99320D01*
X282136Y98320D01*
X282177Y98302D01*
X282232Y98265D01*
X283812Y97528D01*
X283855Y97517D01*
X283916Y97490D01*
X285599Y97039D01*
X285644Y97036D01*
X285708Y97020D01*
X287445Y96868D01*
X287489Y96872D01*
X287555Y96868D01*
X289292Y97020D01*
G37*
G36*
X289292Y474520D02*
X289292Y474520D01*
X289335Y474532D01*
X289401Y474539D01*
X291084Y474990D01*
X291125Y475009D01*
X291188Y475028D01*
X292768Y475765D01*
X292805Y475791D01*
X292864Y475820D01*
X294292Y476820D01*
X294323Y476852D01*
X294376Y476891D01*
X295609Y478124D01*
X295634Y478160D01*
X295680Y478208D01*
X296680Y479636D01*
X296698Y479677D01*
X296735Y479732D01*
X297472Y481312D01*
X297483Y481355D01*
X297510Y481416D01*
X297961Y483099D01*
X297963Y483131D01*
X297970Y483152D01*
X297970Y483167D01*
X297980Y483208D01*
X298132Y484945D01*
X298128Y484989D01*
X298132Y485055D01*
X297980Y486792D01*
X297968Y486835D01*
X297961Y486901D01*
X297510Y488584D01*
X297491Y488625D01*
X297472Y488688D01*
X296735Y490268D01*
X296709Y490305D01*
X296680Y490364D01*
X295680Y491792D01*
X295648Y491823D01*
X295609Y491876D01*
X294376Y493109D01*
X294340Y493134D01*
X294292Y493180D01*
X292864Y494180D01*
X292823Y494198D01*
X292768Y494235D01*
X291188Y494972D01*
X291145Y494983D01*
X291084Y495010D01*
X289401Y495461D01*
X289356Y495464D01*
X289292Y495480D01*
X287555Y495632D01*
X287511Y495628D01*
X287445Y495632D01*
X285708Y495480D01*
X285665Y495468D01*
X285599Y495461D01*
X283916Y495010D01*
X283875Y494991D01*
X283812Y494972D01*
X282232Y494235D01*
X282195Y494209D01*
X282136Y494180D01*
X280708Y493180D01*
X280677Y493148D01*
X280624Y493109D01*
X279391Y491876D01*
X279366Y491840D01*
X279320Y491792D01*
X278320Y490364D01*
X278302Y490323D01*
X278265Y490268D01*
X277528Y488688D01*
X277517Y488645D01*
X277490Y488584D01*
X277039Y486901D01*
X277036Y486856D01*
X277020Y486792D01*
X276868Y485055D01*
X276872Y485011D01*
X276868Y484945D01*
X277020Y483208D01*
X277032Y483165D01*
X277036Y483131D01*
X277036Y483115D01*
X277038Y483110D01*
X277039Y483099D01*
X277490Y481416D01*
X277509Y481375D01*
X277528Y481312D01*
X278265Y479732D01*
X278291Y479695D01*
X278320Y479636D01*
X279320Y478208D01*
X279352Y478177D01*
X279391Y478124D01*
X280624Y476891D01*
X280660Y476866D01*
X280708Y476820D01*
X282136Y475820D01*
X282177Y475802D01*
X282232Y475765D01*
X283812Y475028D01*
X283855Y475017D01*
X283916Y474990D01*
X285599Y474539D01*
X285644Y474536D01*
X285708Y474520D01*
X287445Y474368D01*
X287489Y474372D01*
X287555Y474368D01*
X289292Y474520D01*
G37*
D10*
X-270000Y-30000D03*
X270000Y-30000D03*
X270000Y620000D03*
X-270000Y620000D03*
D11*
X210000Y550000D03*
D12*
X230000Y550000D03*
X250000Y550000D03*
X270000Y550000D03*
D13*
X-90000Y572300D03*
X-90000Y559600D03*
X-90000Y546900D03*
X-90000Y534200D03*
X-90000Y521500D03*
X-90000Y508800D03*
X-90000Y496100D03*
X-90000Y483400D03*
X-90000Y470700D03*
X-90000Y458000D03*
X-90000Y445300D03*
X-90000Y432600D03*
X-90000Y419900D03*
X-90000Y407200D03*
D14*
X-57150Y392300D03*
X-44450Y392300D03*
X-31750Y392300D03*
X-19050Y392300D03*
X-6350Y392300D03*
X6350Y392300D03*
X19050Y392300D03*
X31750Y392300D03*
X44450Y392300D03*
X57150Y392300D03*
D13*
X90000Y407200D03*
X90000Y419900D03*
X90000Y432600D03*
X90000Y445300D03*
X90000Y458000D03*
X90000Y470700D03*
X90000Y483400D03*
X90000Y496100D03*
X90000Y508800D03*
X90000Y521500D03*
X90000Y534200D03*
X90000Y546900D03*
X90000Y559600D03*
X90000Y572300D03*
D15*
X-15500Y493800D03*
D16*
X10000Y37000D03*
X-10000Y37000D03*
D17*
X34000Y-15000D03*
X-34000Y-15000D03*
D18*
X-13001Y119500D03*
X-13001Y110000D03*
X-13001Y100500D03*
X13001Y100500D03*
X13001Y119500D03*
D19*
X-179750Y629000D03*
X-179750Y620000D03*
X-179750Y611000D03*
X-150250Y611000D03*
X-150250Y620000D03*
X-150250Y629000D03*
D20*
X-206500Y603000D03*
X-206500Y611000D03*
X-206500Y619000D03*
X-206500Y627000D03*
X-223500Y627000D03*
X-223500Y619000D03*
X-223500Y611000D03*
X-223500Y603000D03*
D21*
X164500Y518000D03*
X155000Y518000D03*
X145500Y518000D03*
X145500Y492000D03*
X164500Y492000D03*
D11*
X210000Y450000D03*
D12*
X230000Y450000D03*
X250000Y450000D03*
X270000Y450000D03*
D11*
X210000Y350000D03*
D12*
X230000Y350000D03*
X250000Y350000D03*
X270000Y350000D03*
D11*
X210000Y250000D03*
D12*
X230000Y250000D03*
X250000Y250000D03*
X270000Y250000D03*
D11*
X210000Y150000D03*
D12*
X230000Y150000D03*
X250000Y150000D03*
X270000Y150000D03*
D11*
X210000Y50000D03*
D12*
X230000Y50000D03*
X250000Y50000D03*
X270000Y50000D03*
D11*
X-270000Y550000D03*
D12*
X-250000Y550000D03*
X-230000Y550000D03*
X-210000Y550000D03*
D11*
X-270000Y450000D03*
D12*
X-250000Y450000D03*
X-230000Y450000D03*
X-210000Y450000D03*
D11*
X-270000Y350000D03*
D12*
X-250000Y350000D03*
X-230000Y350000D03*
X-210000Y350000D03*
D11*
X-270000Y250000D03*
D12*
X-250000Y250000D03*
X-230000Y250000D03*
X-210000Y250000D03*
D11*
X-270000Y150000D03*
D12*
X-250000Y150000D03*
X-230000Y150000D03*
X-210000Y150000D03*
D11*
X-270000Y50000D03*
D12*
X-250000Y50000D03*
X-230000Y50000D03*
X-210000Y50000D03*
D22*
X-32500Y71500D03*
X-32500Y88500D03*
X10625Y153500D03*
X10625Y136500D03*
X-10625Y153500D03*
X-10625Y136500D03*
D23*
X-141500Y500000D03*
X-158500Y500000D03*
X146500Y465000D03*
X163500Y465000D03*
D24*
X32500Y89500D03*
X32500Y70500D03*
D25*
X-9500Y80000D03*
X9500Y80000D03*
X-140500Y545000D03*
X-159500Y545000D03*
X-140500Y567500D03*
X-159500Y567500D03*
X-140500Y522500D03*
X-159500Y522500D03*
D26*
X-160000Y5000D03*
X-145000Y5000D03*
D25*
X164500Y550000D03*
X145500Y550000D03*
D27*
X-177800Y-25400D03*
X-152400Y-25400D03*
X152400Y-25400D03*
X177800Y-25400D03*
X203200Y-25400D03*
D23*
X268500Y85000D03*
X251500Y85000D03*
X268500Y185000D03*
X251500Y185000D03*
D28*
X187500Y596110D03*
X177500Y596110D03*
X167500Y596110D03*
X157500Y596110D03*
D29*
X200500Y635110D03*
X144500Y635110D03*
D30*
X76200Y307300D03*
X76200Y332700D03*
X-25400Y307300D03*
X-25400Y332700D03*
X-50800Y307300D03*
X-50800Y332700D03*
X50800Y307300D03*
X50800Y332700D03*
X-76200Y307300D03*
X-76200Y332700D03*
X0Y307300D03*
X0Y332700D03*
X25400Y307300D03*
X25400Y332700D03*
D31*
X-60600Y203200D03*
X-117200Y203200D03*
X-60600Y177800D03*
X-117200Y177800D03*
X-60600Y152400D03*
X-117200Y152400D03*
X-60600Y127000D03*
X-117200Y127000D03*
X-60600Y101600D03*
X-117200Y101600D03*
X-60600Y76200D03*
X-117200Y76200D03*
X-60600Y50800D03*
X-117200Y50800D03*
X-60600Y0D03*
X-117200Y0D03*
X-60600Y228600D03*
X-117200Y228600D03*
X-60600Y254000D03*
X-117200Y254000D03*
X-60600Y279400D03*
X-117200Y279400D03*
X-60600Y-25400D03*
X-117200Y-25400D03*
X-60600Y25400D03*
X-117200Y25400D03*
X60600Y0D03*
X117200Y0D03*
X60600Y76200D03*
X117200Y76200D03*
X60600Y101600D03*
X117200Y101600D03*
X60600Y127000D03*
X117200Y127000D03*
X60600Y152400D03*
X117200Y152400D03*
X60600Y177800D03*
X117200Y177800D03*
X60600Y203200D03*
X117200Y203200D03*
X60600Y25400D03*
X117200Y25400D03*
X60600Y279400D03*
X117200Y279400D03*
X60600Y254000D03*
X117200Y254000D03*
X60600Y-25400D03*
X117200Y-25400D03*
X60600Y228600D03*
X117200Y228600D03*
X60600Y50800D03*
X117200Y50800D03*
M02*
