M48
;GenerationSoftware,Autodesk,EAGLE,9.6.2*%
;CreationDate,2022-08-31T10:44:51Z*%
FMAT,2
ICI,OFF
METRIC,TZ,000.000
T5C0.350
T4C0.800
T3C1.000
T2C1.016
T1C2.500
%
G90
M71
T1
X-27000Y-3000
X27000Y-3000
X27000Y62000
X-27000Y62000
T2
X-17780Y-2540
X-15240Y-2540
X15240Y-2540
X17780Y-2540
X20320Y-2540
T3
X-5080Y30730
X-2540Y33270
X-2540Y30730
X7620Y33270
X7620Y30730
X-5080Y33270
X5080Y30730
X5080Y33270
X-7620Y30730
X-7620Y33270
X2540Y30730
X0Y33270
X0Y30730
X2540Y33270
T4
X-21000Y15000
X-23000Y15000
X-25000Y15000
X-27000Y15000
X-21000Y25000
X-23000Y25000
X-25000Y25000
X-27000Y25000
X-21000Y35000
X-23000Y35000
X-25000Y35000
X-27000Y35000
X-27000Y5000
X-23000Y45000
X-25000Y45000
X-27000Y45000
X-21000Y55000
X-23000Y55000
X-25000Y55000
X-27000Y55000
X27000Y5000
X25000Y5000
X23000Y5000
X21000Y5000
X27000Y15000
X25000Y15000
X23000Y15000
X21000Y15000
X27000Y25000
X25000Y25000
X23000Y25000
X21000Y25000
X27000Y35000
X25000Y35000
X23000Y35000
X21000Y35000
X27000Y45000
X25000Y45000
X23000Y45000
X21000Y45000
X27000Y55000
X25000Y55000
X23000Y55000
X21000Y55000
X-25000Y5000
X-23000Y5000
X-21000Y5000
X-21000Y45000
T5
X22000Y31250
X15000Y57000
X21000Y28750
X-12500Y35000
X18000Y19000
X18000Y12730
X19500Y15250
X19500Y18000
X-16000Y31000
X-8375Y15250
X-14000Y19000
X-3125Y12750
X-14129Y12700
X15000Y7500
X15000Y19000
X16500Y18000
X16500Y10000
X-14129Y8890
X-14129Y6350
X-16828Y5080
X-18000Y13500
X7500Y57000
X-3000Y17500
X3500Y27000
X3625Y12375
X0Y17000
X-16828Y10160
X-16828Y7620
X-9873Y15250
X-1270Y24130
X-2500Y14500
X11000Y53500
X12250Y30000
X-13500Y61000
X-10795Y45720
X-15000Y60000
X-10795Y44450
X-13000Y63000
X-10795Y43180
X9875Y17810
X19384Y30625
X14000Y20500
X16750Y57000
X-19500Y17500
X-19500Y10500
X-8890Y27970
X17750Y52000
X-18000Y59000
X-23000Y0
X13500Y0
X-1250Y-1250
X11000Y52000
X-10000Y36000
X-12000Y41980
X-3810Y26670
X11500Y48500
X11000Y45500
X12000Y44000
X4000Y22500
X-1000Y500
X-8890Y-2540
X2500Y13500
X-3750Y5250
X3000Y10250
X1000Y45750
X-6000Y50000
X-1500Y52500
X2000Y51500
X3750Y52000
X1750Y47750
X-2500Y46500
X-4250Y51750
X3000Y49250
X22000Y29750
X18750Y58000
X-14000Y-1000
X24000Y7000
X24000Y13000
X22000Y37000
X24000Y29250
X12730Y57230
X12000Y54500
X24000Y20000
X-26000Y23000
X-26000Y33000
X-26000Y43000
X24000Y17250
X-25750Y2250
X3000Y20000
X-1500Y55500
X-6500Y56000
X3000Y55500
X-3750Y54250
X1000Y53500
X-6500Y52500
X-4250Y47750
X6000Y55500
X6000Y53000
X6000Y50000
X4500Y47500
X6000Y45000
X6000Y42000
X1500Y42000
X3000Y44500
X-500Y44500
X-4500Y45000
X-4000Y42000
X-7000Y47000
X-15000Y43500
X-13000Y43500
X-11000Y48500
X-6715Y41775
X-19500Y39000
M30